HIERARCHY
ROOT Hips
{
	OFFSET 0.00000 0.00000 0.00000
	CHANNELS 6 Xposition Yposition Zposition Zrotation Yrotation Xrotation 
	JOINT LHipJoint
	{
		OFFSET 0 0 0
		CHANNELS 3 Zrotation Yrotation Xrotation
		JOINT LeftUpLeg
		{
			OFFSET 1.36306 -1.79463 0.83929
			CHANNELS 3 Zrotation Yrotation Xrotation
			JOINT LeftLeg
			{
				OFFSET 2.44811 -6.72613 0.00000
				CHANNELS 3 Zrotation Yrotation Xrotation
				JOINT LeftFoot
				{
					OFFSET 2.56220 -7.03959 0.00000
					CHANNELS 3 Zrotation Yrotation Xrotation
					JOINT LeftToeBase
					{
						OFFSET 0.15764 -0.43311 2.32255
						CHANNELS 3 Zrotation Yrotation Xrotation
						End Site
						{
							OFFSET 0.00000 -0.00000 1.18966
						}
					}
				}
			}
		}
	}
	JOINT RHipJoint
	{
		OFFSET 0 0 0
		CHANNELS 3 Zrotation Yrotation Xrotation
		JOINT RightUpLeg
		{
			OFFSET -1.30552 -1.79463 0.83929
			CHANNELS 3 Zrotation Yrotation Xrotation
			JOINT RightLeg
			{
				OFFSET -2.54253 -6.98555 0.00000
				CHANNELS 3 Zrotation Yrotation Xrotation
				JOINT RightFoot
				{
					OFFSET -2.56826 -7.05623 0.00000
					CHANNELS 3 Zrotation Yrotation Xrotation
					JOINT RightToeBase
					{
						OFFSET -0.16473 -0.45259 2.36315
						CHANNELS 3 Zrotation Yrotation Xrotation
						End Site
						{
							OFFSET -0.00000 -0.00000 1.21082
						}
					}
				}
			}
		}
	}
	JOINT LowerBack
	{
		OFFSET 0 0 0
		CHANNELS 3 Zrotation Yrotation Xrotation
		JOINT Spine
		{
			OFFSET 0.02827 2.03559 -0.19338
			CHANNELS 3 Zrotation Yrotation Xrotation
			JOINT Spine1
			{
				OFFSET 0.05672 2.04885 -0.04275
				CHANNELS 3 Zrotation Yrotation Xrotation
				JOINT Neck
				{
					OFFSET 0 0 0
					CHANNELS 3 Zrotation Yrotation Xrotation
					JOINT Neck1
					{
						OFFSET -0.05417 1.74624 0.17202
						CHANNELS 3 Zrotation Yrotation Xrotation
						JOINT Head
						{
							OFFSET 0.10407 1.76136 -0.12397
							CHANNELS 3 Zrotation Yrotation Xrotation
							End Site
							{
								OFFSET 0.03720 1.77044 -0.06241
							}
						}
					}
				}
				JOINT LeftShoulder
				{
					OFFSET 0 0 0
					CHANNELS 3 Zrotation Yrotation Xrotation
					JOINT LeftArm
					{
						OFFSET 3.36241 1.20089 -0.31121
						CHANNELS 3 Zrotation Yrotation Xrotation
						JOINT LeftForeArm
						{
							OFFSET 4.98300 -0.00000 -0.00000
							CHANNELS 3 Zrotation Yrotation Xrotation
							JOINT LeftHand
							{
								OFFSET 3.48356 -0.00000 -0.00000
								CHANNELS 3 Zrotation Yrotation Xrotation
								JOINT LeftFingerBase
								{
									OFFSET 0 0 0
									CHANNELS 3 Zrotation Yrotation Xrotation
									JOINT LeftHandIndex1
									{
										OFFSET 0.71526 -0.00000 -0.00000
										CHANNELS 3 Zrotation Yrotation Xrotation
										End Site
										{
											OFFSET 0.57666 -0.00000 -0.00000
										}
									}
								}
								JOINT LThumb
								{
									OFFSET 0 0 0
									CHANNELS 3 Zrotation Yrotation Xrotation
									End Site
									{
										OFFSET 0.58547 -0.00000 0.58547
									}
								}
							}
						}
					}
				}
				JOINT RightShoulder
				{
					OFFSET 0 0 0
					CHANNELS 3 Zrotation Yrotation Xrotation
					JOINT RightArm
					{
						OFFSET -3.13660 1.37405 -0.40465
						CHANNELS 3 Zrotation Yrotation Xrotation
						JOINT RightForeArm
						{
							OFFSET -5.24190 -0.00000 -0.00000
							CHANNELS 3 Zrotation Yrotation Xrotation
							JOINT RightHand
							{
								OFFSET -3.44417 -0.00000 -0.00000
								CHANNELS 3 Zrotation Yrotation Xrotation
								JOINT RightFingerBase
								{
									OFFSET 0 0 0
									CHANNELS 3 Zrotation Yrotation Xrotation
									JOINT RightHandIndex1
									{
										OFFSET -0.62253 -0.00000 -0.00000
										CHANNELS 3 Zrotation Yrotation Xrotation
										End Site
										{
											OFFSET -0.50190 -0.00000 -0.00000
										}
									}
								}
								JOINT RThumb
								{
									OFFSET 0 0 0
									CHANNELS 3 Zrotation Yrotation Xrotation
									End Site
									{
										OFFSET -0.50956 -0.00000 0.50956
									}
								}
							}
						}
					}
				}
			}
		}
	}
}
MOTION
Frames: 11
Frame Time: 0.0333333
11.6562 17.3847 13.933 0 0 0 0 0 0 -21 0 0 0 0 0 0 0 0 0 0 0 0 0 0 21 0 0 0 0 0 0 0 0 0 0 0 0 0 0 0 0 0 0 0 0 0 0 -16 0 0 21 0 0 11 0 0 0 -8 0 0 0 0 0 0 0 0 0 0 0 0 0 0 0 0 0 0 0 0 8 0 0 0 0 0 0 0 0 0 0 0 0 0 0 0 0 0
-15.3089 28.5408 -1.6379 -7.6617 11.7331 363.9240 0.0000 0.0000 0.0000 -0.4029 -3.0272 -55.0420 10.2410 17.5431 60.2907 0.1691 5.2671 7.6678 0.1110 -2.1478 -5.9144 0.0000 0.0000 0.0000 17.6753 17.0007 -46.8289 -14.9877 -19.3867 75.1996 0.1831 -8.3188 0.6551 -0.0582 -1.5573 4.2837 7.7145 6.5110 38.9679 -0.8004 11.4683 2.1425 -10.0489 4.4541 -15.1175 0.3882 -7.0744 21.8473 9.8887 -7.9546 -6.7904 3.9143 -4.6469 -5.1459 0.0000 0.0000 0.0000 -86.1317 -56.3272 52.7412 108.3805 -58.6842 -75.8477 -0.0000 -0.0000 69.7586 2.4782 5.8830 0.2542 -7.1250 0.0000 -0.0000 -19.9637 35.2367 5.0444 0.0000 0.0000 0.0000 9.7600 73.1216 -7.1616 -35.5357 45.1909 -15.1922 0.0000 0.0000 11.3918 -28.3682 -9.3560 5.0168 7.1250 -0.0000 -0.0000 -1.2521 -40.5822 -0.1364
-15.2312 28.2672 -1.0664 -8.5343 12.4418 362.8200 0.0000 0.0000 0.0000 0.7564 -1.7626 -50.6743 9.5902 17.1729 58.1096 0.1940 3.7497 7.8694 0.1280 -2.3060 -6.3522 0.0000 0.0000 0.0000 20.5104 17.5712 -41.9911 -15.0512 -19.4024 75.3909 0.2417 -9.4003 0.4140 -0.0521 -1.4724 4.0496 7.7842 6.2766 37.4336 0.8551 11.3994 2.1589 -8.0973 4.4997 -14.8501 -2.2396 -5.9238 20.5755 8.0936 -7.5557 -2.8110 3.5310 -4.1577 -3.6835 -0.0000 0.0000 0.0000 -86.1111 -51.1879 50.8449 117.7375 -56.8833 -83.7700 -0.0000 -0.0000 69.3092 -0.0123 6.3037 -0.0014 -7.1250 0.0000 -0.0000 -22.0382 35.4796 5.4955 -0.0000 0.0000 0.0000 29.9219 71.6724 10.6582 -44.6932 50.6173 -22.0013 0.0000 0.0000 8.2106 -28.8440 -1.1999 0.6608 7.1250 -0.0000 -0.0000 -1.8167 -31.3464 -0.6067
-15.0805 28.0343 -0.3649 -3.7952 14.7642 362.1600 0.0000 0.0000 0.0000 -4.4505 -2.3245 -44.1249 8.6627 16.5857 54.9160 0.2216 3.2235 8.3658 0.1229 -2.2600 -6.2247 0.0000 0.0000 0.0000 17.8234 14.8623 -36.2168 -15.3308 -19.4691 76.2310 0.2382 -9.4036 0.5782 -0.0446 -1.3636 3.7499 4.6215 5.1761 35.1002 0.3944 8.5209 2.4386 -5.6621 3.4887 -14.4988 -5.7426 -4.2086 20.8102 8.9896 -6.2229 0.0284 4.2012 -3.4904 -2.7929 0.0000 -0.0000 0.0000 -83.1128 -47.0030 45.5898 125.4034 -54.6891 -90.1135 -0.0000 -0.0000 68.5511 -2.9538 4.7316 -0.2439 -7.1250 0.0000 -0.0000 -23.8953 33.8542 7.0647 0.0000 -0.0000 0.0000 51.6057 70.2011 29.9815 -52.0011 53.7714 -27.7804 0.0000 0.0000 8.0608 -30.1174 1.0440 -0.6055 7.1250 -0.0000 -0.0000 -2.7627 -28.7685 -1.0933
-15.0227 27.4915 0.2822 -1.9732 16.6771 359.9390 0.0000 0.0000 0.0000 -5.3027 -1.5938 -38.6087 8.2338 16.2886 53.4006 0.2544 2.5095 8.9888 0.2657 -3.3161 -9.1601 0.0000 0.0000 0.0000 19.2189 14.4663 -30.8385 -16.0465 -19.6210 78.3701 0.3659 -11.3977 0.1528 -0.1595 -2.5736 7.0938 1.4419 4.7965 34.9470 1.8910 7.0640 2.6727 -1.7720 3.0706 -14.8727 -8.8946 -2.9273 18.2814 7.5591 -5.3192 4.3129 4.0535 -2.9385 -1.1355 -0.0000 0.0000 0.0000 -82.9463 -44.1149 41.6823 130.5800 -52.7589 -94.2883 -0.0000 -0.0000 68.3940 -6.5765 4.5555 -0.5246 -7.1250 0.0000 -0.0000 -26.5746 33.4731 8.2935 -0.0000 0.0000 0.0000 61.5469 68.1144 41.3687 -61.2268 56.6281 -35.3637 0.0000 0.0000 6.3881 -29.2432 2.7031 -1.5125 7.1250 -0.0000 -0.0000 -2.0230 -26.8812 -0.8902
-14.8672 26.7582 1.0479 -5.6098 19.6357 354.6060 0.0000 0.0000 0.0000 0.0207 0.0421 -33.7310 8.8257 16.6943 55.4855 0.2334 1.3425 8.7526 0.1866 -2.7819 -7.6723 0.0000 0.0000 0.0000 26.9599 11.8681 -23.9521 -16.5328 -19.7093 79.8151 0.4388 -12.6637 0.6631 -0.2245 -3.0502 8.4185 4.6138 2.6185 33.5049 4.3247 5.7330 4.2484 -0.1282 2.4967 -12.4651 -10.7938 -1.8847 12.1669 5.3035 -3.7650 9.7892 3.7777 -2.1558 1.4185 0.0000 -0.0000 0.0000 -82.6345 -43.3287 37.1580 135.2804 -50.6304 -97.9782 -0.0000 -0.0000 66.8781 -10.2403 2.2671 -0.4095 -7.1250 0.0000 -0.0000 -28.5667 31.1869 10.8895 0.0000 -0.0000 0.0000 66.1300 67.4302 48.2195 -71.1417 58.6126 -43.7443 0.0000 0.0000 4.8489 -28.5865 -0.5846 0.3185 7.1250 -0.0000 -0.0000 -1.6032 -30.6434 -0.5624
-14.6444 25.9924 1.8693 -5.0918 24.7631 352.3320 0.0000 0.0000 0.0000 0.5396 -0.3886 -31.1956 9.4184 17.0696 57.5263 0.2449 1.9131 8.8770 0.1145 -2.1815 -6.0075 0.0000 0.0000 0.0000 28.3197 7.1871 -21.3447 -17.0863 -19.7952 81.4530 0.3316 -11.6576 1.8595 -0.0872 -1.9044 5.2416 5.3697 0.9370 31.3021 5.4026 3.8614 4.4003 1.4130 1.6968 -11.4429 -14.5605 -1.8465 8.4508 6.1817 -3.6712 13.7328 4.2763 -2.2648 3.1480 -0.0000 0.0000 0.0000 -82.9269 -43.0787 34.6943 138.6182 -48.8676 -100.5263 -0.0000 -0.0000 63.8538 -11.8413 0.9135 -0.1915 -7.1250 0.0000 -0.0000 -29.2929 29.8748 12.3251 -0.0000 0.0000 0.0000 67.2356 65.0211 49.9508 -81.1246 59.7002 -52.3214 0.0000 0.0000 3.6885 -27.7120 -2.1557 1.1319 7.1250 -0.0000 -0.0000 -0.9106 -32.4135 -0.2807
-14.3782 25.1349 2.7167 -1.9230 29.3038 351.9560 0.0000 0.0000 0.0000 -1.2262 -0.4497 -29.5282 9.8884 17.3466 59.1146 0.2409 4.2603 8.7791 0.0008 -0.1797 -0.4937 0.0000 0.0000 0.0000 26.1219 4.5389 -20.5867 -17.6899 -19.8716 83.2318 0.2479 -10.6433 2.5150 -0.2550 -3.2491 8.9730 3.5353 0.5738 28.3697 5.9228 2.6799 4.7839 3.6918 1.3104 -10.4809 -18.4179 -2.0949 8.5406 6.5612 -4.2629 13.0729 5.0006 -2.7031 3.1211 0.0000 0.0000 0.0000 -82.7290 -44.5003 31.9766 140.4659 -47.7915 -101.9066 -0.0000 -0.0000 61.2630 -13.8266 -0.8017 0.1973 -7.1250 0.0000 -0.0000 -30.1461 28.2126 14.2186 0.0000 0.0000 0.0000 66.8482 63.6194 49.4221 -91.1287 59.9952 -60.9775 0.0000 0.0000 2.2580 -26.1185 -3.3486 1.6404 7.1250 -0.0000 -0.0000 0.4060 -33.7079 0.1124
-14.0108 24.2288 3.6145 3.1364 34.5611 351.9700 0.0000 0.0000 0.0000 -4.8045 -0.7089 -26.7265 10.3102 17.5806 60.5202 0.1385 4.4994 6.8710 0.0218 -0.9523 -2.6175 0.0000 0.0000 0.0000 21.0575 0.6294 -19.0211 -17.7235 -19.8753 83.3307 0.0906 -7.8914 3.3234 -0.2644 -3.3080 9.1374 1.1553 0.4757 26.5326 6.0675 1.8041 4.6679 5.5385 0.9970 -9.7063 -21.7750 -2.4313 6.8916 6.7553 -4.5031 14.8588 5.5669 -3.0184 4.0851 -0.0000 -0.0000 0.0000 -83.5625 -48.3128 30.7130 138.9750 -48.6656 -100.7946 -0.0000 -0.0000 59.3055 -13.5654 -1.0608 0.2559 -7.1250 0.0000 -0.0000 -29.9014 27.9998 14.2455 -0.0000 -0.0000 0.0000 65.3407 62.6790 48.0456 -100.3854 59.5885 -68.9816 0.0000 0.0000 1.8592 -25.5224 -4.2425 2.0229 7.1250 -0.0000 -0.0000 0.9281 -34.6780 0.2352
-13.5632 23.2702 4.5324 5.6597 39.6817 350.4850 0.0000 0.0000 0.0000 -5.4636 -0.1354 -24.6863 10.9018 17.8867 62.4624 0.0916 4.7502 5.9044 0.0001 -0.0762 -0.2095 0.0000 0.0000 0.0000 17.7856 -2.7140 -17.1910 -17.2954 -19.8237 82.0700 0.0494 -5.8897 2.5186 -0.1715 -2.6677 7.3548 1.1041 0.1707 25.2849 6.8816 1.4730 4.4061 6.5967 0.8740 -9.3528 -23.9964 -2.7027 6.1149 5.6618 -4.5314 16.1669 5.5376 -3.2299 4.7163 0.0000 -0.0000 0.0000 -78.6380 -49.0781 22.0397 140.5267 -47.7547 -101.9517 -0.0000 -0.0000 51.9877 -16.3240 -3.4695 1.0154 -7.1250 0.0000 -0.0000 -31.0193 25.6529 17.0475 0.0000 -0.0000 0.0000 64.9055 62.3859 46.9469 -107.6517 58.7893 -75.2246 0.0000 0.0000 1.3124 -24.5071 -5.0938 2.3178 7.1250 -0.0000 -0.0000 1.8143 -35.5700 0.4206
-13.0386 22.2930 5.4910 7.4579 44.8783 347.6480 0.0000 0.0000 0.0000 -5.1861 1.0113 -22.3252 11.6504 18.2389 64.8762 0.0834 4.3557 5.5745 0.0030 -0.3534 -0.9710 0.0000 0.0000 0.0000 14.7677 -5.1785 -13.8429 -16.5195 -19.7071 79.7759 0.0833 -5.4815 0.1042 -0.1293 -2.3176 6.3841 1.9944 -0.0134 25.3213 7.2806 1.5952 3.7267 6.5186 0.9417 -10.1491 -26.6166 -3.0114 5.6007 6.1877 -4.7347 19.3692 6.1347 -3.6260 5.9923 0.0000 0.0000 0.0000 -74.8327 -51.3601 15.9077 137.5991 -49.4297 -99.7554 -0.0000 -0.0000 47.0380 -17.0682 -4.3576 1.3364 -7.1250 0.0000 -0.0000 -31.2425 24.8017 17.9770 0.0000 0.0000 0.0000 65.3873 62.0431 46.3923 -113.1849 57.8681 -79.9350 0.0000 0.0000 1.5473 -23.2375 -7.9144 3.3835 7.1250 -0.0000 -0.0000 3.1105 -38.5656 0.4935
